<svg width="24" height="24" viewBox="0 0 24 24" fill="none" xmlns="http://www.w3.org/2000/svg">
<path d="M12.0746 13.6084L13.7564 11.9267L7.85205 6.02303L6.17021 7.70469L12.0746 13.6084ZM20.5076 3.49457C19.403 2.38328 18.0889 1.50219 16.6413 0.902337C15.1937 0.302487 13.6415 -0.00419926 12.0746 4.34248e-05H10.8818V4.77072H13.2674V2.45694C15.4066 2.72729 17.3911 3.7141 18.8977 5.25655C20.4042 6.799 21.3439 8.80616 21.5635 10.9509C21.7832 13.0957 21.2699 15.2516 20.1074 17.0674C18.9448 18.8832 17.2015 20.2517 15.1615 20.95C13.1215 21.6483 10.9051 21.6352 8.87351 20.9128C6.84193 20.1904 5.11491 18.8014 3.97391 16.972C2.83291 15.1426 2.34519 12.9807 2.59024 10.8387C2.83528 8.69665 3.79864 6.70075 5.32332 5.17623L6.17021 4.34136L4.48836 2.64777L3.64147 3.49457C2.50223 4.59477 1.59353 5.91081 0.968395 7.36592C0.343261 8.82102 0.0142131 10.386 0.000450362 11.9697C-0.0133123 13.5533 0.288486 15.1238 0.888236 16.5895C1.48799 18.0553 2.37368 19.3869 3.49363 20.5068C4.61358 21.6266 5.94536 22.5122 7.41127 23.1119C8.87717 23.7115 10.4478 24.0133 12.0316 23.9995C13.6154 23.9858 15.1806 23.6568 16.6359 23.0317C18.0911 22.4066 19.4073 21.498 20.5076 20.3589C22.7438 18.1223 24 15.0893 24 11.9267C24 8.76421 22.7438 5.73115 20.5076 3.49457Z" fill="#C6C6C6"/>
</svg>
