<svg width="100" height="25" viewBox="0 0 100 25" fill="none" xmlns="http://www.w3.org/2000/svg">
<path d="M57.7437 0.106419C58.9796 -0.0768625 60.2626 0.00180086 61.4995 0.152612L64.5912 5.85539L70.6137 6.95511L70.6599 6.9782C71.2328 8.16904 71.6444 9.42906 71.8277 10.7571L67.659 15.2682L68.3462 21.3604C67.4528 22.3449 66.331 23.1242 65.1621 23.7421L59.4825 21.0629L53.7566 23.8345C52.6507 23.2544 51.6264 22.53 50.7107 21.6809L51.4441 15.2682L46.978 10.5727C47.1382 9.35782 47.5509 8.1909 48.0777 7.06816L54.6051 5.78529L57.7437 0.106419ZM46.6806 0.426932C47.3907 0.426932 47.5183 1.34368 47.1162 1.80137C46.2783 2.76279 45.5587 3.83959 44.9167 4.93924L44.7105 5.04378H34.7503C34.4068 4.97468 34.0403 5.17999 33.9492 5.52556L33.1708 8.52607C33.0797 8.8696 33.4685 9.23643 33.7681 9.25948H42.5163C42.951 9.16836 43.4559 9.41982 43.501 9.9236L42.5844 13.3358C42.5152 13.7253 42.0577 13.8853 41.7153 13.8382C38.5104 13.8382 35.2791 13.8152 32.0731 13.8613C31.9647 13.9355 31.8578 14.012 31.7526 14.0907C31.34 15.2815 31.0658 16.5187 30.7453 17.7095L31.1801 18.2594H43.3604C43.7269 18.1902 44.0477 18.4898 44.1618 18.8092L43.2222 22.2907C43.153 22.6341 42.8096 22.8405 42.4661 22.8175C35.916 22.7944 29.3429 22.8635 22.7928 22.7944C22.7017 22.7032 22.5183 22.4967 22.4261 22.4046L28.0608 1.31108L28.0629 1.3204C28.0927 1.08635 28.2024 0.869626 28.3732 0.706925C28.5441 0.544219 28.766 0.445279 29.0013 0.426932H46.6806ZM12.2289 0.416802C12.3129 0.422689 12.395 0.446076 12.47 0.485686C12.57 0.538544 12.6535 0.618165 12.7106 0.71584C12.7678 0.813509 12.7966 0.925251 12.7937 1.03838C12.7908 1.15149 12.7561 1.26148 12.694 1.35606L8.36529 17.4328C8.33368 17.5109 8.32111 17.5956 8.32841 17.6795C8.33572 17.7635 8.36279 17.8447 8.40743 17.9162C8.45205 17.9876 8.51311 18.0474 8.58531 18.0908C8.65755 18.1343 8.73907 18.1603 8.82316 18.1662H20.4342C20.8688 18.0971 21.3033 18.6478 21.031 19.0353L20.1376 22.3345C20.0684 22.678 19.68 22.8614 19.3596 22.7923H0.538042C0.215178 22.7723 -0.0991236 22.4488 0.0295163 22.1051L5.48107 1.67333C5.61715 1.30685 5.58581 0.849323 5.87047 0.552949L5.86966 0.542414L6.0751 0.416802H12.2289ZM99.7026 0.46259C99.7717 0.553667 99.9329 0.714012 100 0.806199L94.3653 22.0358C94.2962 22.4935 93.8628 22.8372 93.4042 22.7692C91.8699 22.7462 90.3354 22.7692 88.8011 22.7692C88.3654 22.7462 88.1598 22.2666 87.9765 21.9451L81.7458 11.0788L81.4945 11.309L78.4709 22.6688L78.1966 22.7733C76.0894 22.7503 73.96 22.7732 71.8528 22.7271C71.7532 22.5989 71.6461 22.4766 71.5323 22.3608C74.1433 19.0407 75.4702 14.6659 74.8314 10.4735L77.3501 1.08295L77.3514 1.09227C77.3921 0.899711 77.4991 0.727446 77.654 0.606031C77.809 0.484613 78.0019 0.421672 78.1986 0.428148L83.1453 0.451244L83.5116 0.725565L89.8096 12.589L90.0398 12.4529L93.3349 0.416802L99.7026 0.46259Z" fill="white"/>
<path d="M48.1029 7.00881C49.8541 3.29586 53.6225 0.539278 57.7218 0.106934L54.607 5.73261C52.4767 6.21184 50.2783 6.62126 48.1134 7.00881H48.1029ZM61.5006 0.128811C65.3936 0.753887 68.9892 3.3167 70.6157 6.89526L64.5935 5.80137C63.5157 3.95636 62.5543 2.01862 61.5006 0.128811ZM55.8659 7.85266C58.1334 7.71723 60.469 7.85266 62.7596 7.78391L62.8957 7.88808L65.026 14.2899C63.2623 15.7692 61.2472 17.0465 59.3913 18.4592L53.7565 14.2899L55.8659 7.8412V7.85266ZM47.0263 10.4947L51.4922 15.165L50.759 21.5439C47.7584 18.7873 46.2701 14.4795 47.0263 10.4947ZM67.6842 15.1661L71.8526 10.678C72.4811 14.4597 71.1656 18.5602 68.3713 21.2262C68.2665 19.1988 67.8895 17.1944 67.6842 15.1661ZM53.7586 23.6619L59.4845 20.9053L65.1643 23.5702C61.7059 25.461 57.2631 25.461 53.7482 23.6608L53.7586 23.6619Z" fill="#D6161B"/>
</svg>
